<svg display="none" xmlns="http://www.w3.org/2000/svg">
    
    <symbol id="facebook" viewBox="0 0 98.6 98.6">
        <g>
            <path d="M49.3,0C22.1,0,0,22.1,0,49.3s22.1,49.3,49.3,49.3s49.3-22.1,49.3-49.3S76.5,0,49.3,0z M63.8,28.3c-2.3,0-4.7,0-7,0
                c-1.5-0.1-3,1-3.3,2.5c0,2.6,0,5.1,0,7.7c3.4,0,6.9,0,10.3,0c-0.3,3.7-0.7,7.4-1.3,11.1c-3,0-6.1,0-9.1,0c0,11,0,21.9,0,32.8
                c-4.5,0-9,0-13.6,0c-0.1-11,0-21.9,0-32.9c-2.2,0-4.4,0-6.6,0c0-3.7,0-7.4,0-11c2.2,0,4.4,0,6.6,0c0.1-3.6-0.1-7.2,0.1-10.7
                c0.2-2.9,1.3-5.7,3.4-7.7c2.6-2.4,6.2-3.3,9.6-3.4c3.6,0,7.3,0,10.9,0C63.8,20.6,63.8,24.4,63.8,28.3z"/>
        </g>
    </symbol>

    <symbol id="instagram" viewBox="0 0 98.6 98.6">
        <g>
            <path d="M62.2,24.5H36.2c-6.5,0-11.8,5.3-11.8,11.8v26.2c0,6.5,5.3,11.8,11.8,11.8h25.9c6.5,0,11.8-5.3,11.8-11.8V36.2
                C73.9,29.8,68.7,24.5,62.2,24.5z M49.2,65c-8.8,0-16-7.1-16-15.8s7.2-15.8,16-15.8s16,7.1,16,15.8S58,65,49.2,65z M65.5,36.5
                c-2.1,0-3.8-1.7-3.8-3.8s1.7-3.8,3.8-3.8c2.1,0,3.8,1.7,3.8,3.8S67.6,36.5,65.5,36.5z"/>
            <path d="M49.3,0C22.1,0,0,22.1,0,49.3s22.1,49.3,49.3,49.3s49.3-22.1,49.3-49.3S76.5,0,49.3,0z M79.8,62.4
                c0,9.7-7.9,17.6-17.6,17.6H36.2c-9.7,0-17.6-7.9-17.6-17.6V36.2c0-9.7,7.9-17.6,17.6-17.6h25.9c9.7,0,17.6,7.9,17.6,17.6V62.4z"/>
            <path d="M49.2,39.2c-5.6,0-10.1,4.5-10.1,10s4.6,10,10.1,10s10.1-4.5,10.1-10S54.8,39.2,49.2,39.2z"/>
        </g>
    </symbol>

    <symbol id="odnoklassniki" viewBox="0 0 98.6 98.6">
       <g>
	        <circle cx="49.9" cy="30.9" r="8.3"/>
	        <path d="M49.3,0C22.1,0,0,22.1,0,49.3s22.1,49.3,49.3,49.3s49.3-22.1,49.3-49.3S76.5,0,49.3,0z M49.9,14c9.3,0,16.9,7.6,16.9,16.9
                s-7.6,16.9-16.9,16.9s-16.9-7.6-16.9-16.9S40.5,14,49.9,14z M64.9,57.6c-3.6,2.3-8.5,3.2-11.8,3.5l2.7,2.7l10,10
                c1.5,1.5,1.5,4,0,5.5l-0.5,0.5c-1.5,1.5-4,1.5-5.5,0c-2.5-2.5-6.2-6.2-10-10l-10,10c-1.5,1.5-4,1.5-5.5,0L34,79.3
                c-1.5-1.5-1.5-4,0-5.5c2.5-2.5,6.2-6.2,10-10l2.7-2.7c-3.2-0.3-8.2-1.2-11.8-3.5c-4.2-2.7-6.1-4.3-4.5-7.7c1-1.9,3.6-3.5,7.1-0.7
                c4.8,3.7,12.4,3.7,12.4,3.7s7.6,0,12.4-3.7c3.5-2.8,6.2-1.2,7.1,0.7C71,53.2,69.2,54.9,64.9,57.6z"/>
        </g>
    </symbol>

    <symbol id="vk" viewBox="0 0 98.6 98.6">
       <g>
	        <path d="M49.3,0C22.1,0,0,22.1,0,49.3s22.1,49.3,49.3,49.3s49.3-22.1,49.3-49.3S76.5,0,49.3,0z M70.7,55.8c0.4,0.5,1.3,1.4,2.8,2.8
            h0l0,0l0,0l0.1,0.1c3.2,3,5.4,5.5,6.5,7.6c0.1,0.1,0.1,0.3,0.2,0.4c0.1,0.2,0.2,0.5,0.2,0.9c0.1,0.4,0.1,0.8,0,1.2
            c-0.1,0.3-0.4,0.7-0.9,0.9c-0.5,0.3-1.2,0.4-2,0.4L69,70.3c-0.5,0.1-1.2,0.1-1.9-0.2c-0.7-0.2-1.3-0.5-1.8-0.8L64.6,69
            c-0.7-0.5-1.5-1.2-2.4-2.2c-0.9-1-1.7-1.9-2.3-2.7s-1.3-1.4-2.1-2c-0.7-0.5-1.4-0.7-1.9-0.5c-0.1,0-0.2,0.1-0.3,0.1
            c-0.1,0.1-0.3,0.2-0.6,0.5c-0.3,0.3-0.5,0.6-0.7,1c-0.2,0.4-0.4,1-0.6,1.8c-0.2,0.8-0.2,1.7-0.2,2.7c0,0.3,0,0.7-0.1,0.9
            c-0.1,0.3-0.2,0.5-0.3,0.6l-0.1,0.2c-0.4,0.4-1,0.7-1.8,0.8h-3.9c-1.6,0.1-3.3-0.1-5-0.6c-1.7-0.5-3.2-1.1-4.5-1.8
            c-1.3-0.7-2.5-1.5-3.5-2.3c-1.1-0.8-1.9-1.4-2.4-2l-0.9-0.8c-0.2-0.2-0.5-0.6-0.9-1c-0.4-0.5-1.2-1.5-2.4-3.1
            c-1.2-1.6-2.4-3.3-3.6-5.2c-1.2-1.8-2.6-4.2-4.2-7.2c-1.6-3-3.1-6.1-4.5-9.3C15.1,36.6,15,36.3,15,36c0-0.2,0-0.4,0.1-0.5l0.1-0.2
            c0.3-0.4,1-0.7,1.9-0.7l9.4-0.1c0.3,0,0.5,0.1,0.8,0.2c0.3,0.1,0.4,0.2,0.5,0.3l0.2,0.1c0.4,0.3,0.6,0.6,0.8,1.1
            c0.5,1.1,1,2.3,1.6,3.5c0.6,1.2,1.1,2.2,1.4,2.8l0.5,1c0.7,1.4,1.3,2.6,1.9,3.6c0.6,1,1.2,1.8,1.7,2.3c0.5,0.6,1,1,1.4,1.3
            c0.5,0.3,0.8,0.5,1.2,0.5c0.3,0,0.6-0.1,0.9-0.2c0,0,0.1-0.1,0.2-0.2s0.2-0.3,0.4-0.8c0.2-0.4,0.4-0.9,0.5-1.6
            c0.1-0.7,0.2-1.6,0.3-2.8c0.1-1.2,0.1-2.6,0-4.3c0-0.9-0.1-1.7-0.3-2.5c-0.2-0.8-0.3-1.3-0.5-1.6L39.9,37c-0.6-0.8-1.5-1.3-2.9-1.5
            c-0.3,0-0.2-0.3,0.2-0.8c0.4-0.4,0.8-0.8,1.3-1c1.2-0.6,3.9-0.9,8.2-0.8c1.9,0,3.4,0.2,4.6,0.4c0.5,0.1,0.8,0.3,1.1,0.5
            c0.3,0.2,0.5,0.5,0.7,0.8c0.2,0.4,0.3,0.7,0.4,1.1c0.1,0.4,0.1,0.9,0.1,1.6c0,0.7,0,1.3,0,1.9c0,0.6-0.1,1.4-0.1,2.4
            c0,1-0.1,2-0.1,2.8c0,0.3,0,0.7,0,1.4c0,0.7,0,1.3,0,1.6c0,0.4,0.1,0.9,0.1,1.4c0.1,0.5,0.2,1,0.4,1.3c0.2,0.4,0.5,0.6,0.8,0.8
            c0.2,0,0.4,0.1,0.6,0.1c0.2,0,0.5-0.1,0.9-0.4c0.4-0.3,0.8-0.7,1.3-1.2c0.5-0.5,1.1-1.3,1.8-2.3c0.7-1,1.5-2.3,2.3-3.7
            c1.4-2.4,2.6-4.9,3.7-7.7c0.1-0.2,0.2-0.4,0.3-0.6c0.1-0.2,0.3-0.3,0.4-0.4l0.1-0.1c0,0,0.1-0.1,0.2-0.1c0.1,0,0.2-0.1,0.4-0.1
            c0.2,0,0.5,0,0.7,0l9.9-0.1c0.9-0.1,1.6-0.1,2.2,0.1c0.6,0.2,0.9,0.4,1.1,0.6l0.2,0.3c0.5,1.5-1.2,4.8-5.1,10.1
            c-0.5,0.7-1.3,1.7-2.2,2.9c-1.8,2.3-2.8,3.8-3.1,4.5C69.8,54,70,54.9,70.7,55.8z"/>
        </g>
    </symbol>

    <symbol id="youtube" viewBox="0 0 98.6 98.6">
       <g>
	       <g>
	            <polygon points="43.7,56.5 59,48.4 43.7,40.5 	"/>
	                <path d="M49.3,0C22.1,0,0,22.1,0,49.3s22.1,49.3,49.3,49.3s49.3-22.1,49.3-49.3S76.5,0,49.3,0z M76.8,60.8
                        c-0.7,4.2-2.7,6.4-6.9,6.9c-4.7,0.5-15.4,0.8-20.1,0.8c-4.9,0-14.8-0.2-19.7-0.6c-4.2-0.4-7.1-2.7-7.7-6.9
                        c-0.4-3.1-0.7-6.7-0.7-12.5c0-6.5,0.2-9.2,0.8-12.1c0.8-4.2,2.8-6.2,7.3-6.6c4.8-0.5,9.3-0.7,19.3-0.7c4.9,0,15.5,0.3,20.4,0.7
                        c4.3,0.4,6.7,3,7.2,7.2c0.4,2.9,0.7,7.1,0.7,11.6C77.5,56.2,76.8,60.8,76.8,60.8z"/>
            </g>
        </g>
    </symbol>

    <symbol id="call" viewBox="0 0 30 30">
       <g>
	        <path d="M23.7094 18.5839C23.0952 17.9444 22.3544 17.6025 21.5692 17.6025C20.7904 17.6025 20.0433 17.9381 19.4038 18.5776L17.403 20.5721C17.2384 20.4834 17.0737 20.4011 16.9154 20.3188C16.6875 20.2048 16.4722 20.0972 16.2886 19.9832C14.4144 18.7929 12.7112 17.2416 11.0776 15.2345C10.2861 14.234 9.75429 13.3919 9.36805 12.5371C9.88725 12.0623 10.3685 11.5684 10.837 11.0935C11.0143 10.9162 11.1916 10.7326 11.3689 10.5553C12.6985 9.22567 12.6985 7.50344 11.3689 6.17379L9.64032 4.44523C9.44403 4.24895 9.24142 4.04633 9.05147 3.84372C8.67156 3.45115 8.27267 3.04592 7.86111 2.66602C7.24693 2.05818 6.51245 1.73526 5.73998 1.73526C4.96752 1.73526 4.22038 2.05818 3.58721 2.66602C3.58087 2.67235 3.58087 2.67235 3.57454 2.67868L1.42176 4.85046C0.611304 5.66092 0.14909 6.64866 0.0477825 7.7947C-0.104178 9.64356 0.440348 11.3658 0.858241 12.4928C1.88398 15.2598 3.41625 17.8241 5.70199 20.5721C8.47528 23.8836 11.8121 26.4986 15.6238 28.3411C17.0801 29.0312 19.0239 29.848 21.1957 29.9873C21.3286 29.9937 21.4679 30 21.5946 30C23.0572 30 24.2855 29.4745 25.248 28.4297C25.2543 28.4171 25.267 28.4107 25.2733 28.3981C25.6025 27.9992 25.9824 27.6383 26.3813 27.252C26.6536 26.9924 26.9322 26.7202 27.2045 26.4352C27.8313 25.7831 28.1606 25.0233 28.1606 24.2445C28.1606 23.4593 27.825 22.7059 27.1855 22.0727L23.7094 18.5839ZM25.9761 25.2512C25.9698 25.2512 25.9698 25.2575 25.9761 25.2512C25.7292 25.5171 25.4759 25.7577 25.2036 26.0237C24.7921 26.4162 24.3742 26.8278 23.9816 27.29C23.3421 27.9738 22.5887 28.2968 21.6009 28.2968C21.5059 28.2968 21.4046 28.2968 21.3096 28.2904C19.4291 28.1701 17.6816 27.4357 16.3709 26.8088C12.7872 25.0739 9.64032 22.6109 7.02532 19.4894C4.86621 16.887 3.42258 14.481 2.46649 11.8976C1.87765 10.3211 1.66237 9.0927 1.75734 7.934C1.82066 7.19319 2.10559 6.57901 2.63112 6.05348L4.79023 3.89437C5.10048 3.60311 5.42973 3.44482 5.75265 3.44482C6.15155 3.44482 6.47446 3.68543 6.67708 3.88804C6.68341 3.89437 6.68974 3.9007 6.69607 3.90704C7.08231 4.26794 7.44954 4.64151 7.83578 5.04041C8.03206 5.24303 8.23468 5.44564 8.43729 5.65459L10.1658 7.38314C10.837 8.0543 10.837 8.67481 10.1658 9.34597C9.98223 9.52959 9.80494 9.71321 9.62132 9.8905C9.08946 10.435 8.58292 10.9416 8.03206 11.4354C8.0194 11.4481 8.00674 11.4544 8.0004 11.4671C7.45588 12.0116 7.55718 12.5435 7.67115 12.9044C7.67749 12.9234 7.68382 12.9424 7.69015 12.9614C8.1397 14.0504 8.77287 15.0762 9.73529 16.2982L9.74162 16.3045C11.4892 18.4573 13.3317 20.1352 15.3642 21.4205C15.6238 21.5852 15.8897 21.7181 16.143 21.8448C16.3709 21.9587 16.5862 22.0664 16.7698 22.1803C16.7951 22.193 16.8205 22.212 16.8458 22.2247C17.0611 22.3323 17.2637 22.383 17.4726 22.383C17.9982 22.383 18.3274 22.0537 18.4351 21.9461L20.6005 19.7806C20.8158 19.5653 21.1577 19.3057 21.5566 19.3057C21.9491 19.3057 22.2721 19.5527 22.4683 19.768C22.4747 19.7743 22.4747 19.7743 22.481 19.7806L25.9698 23.2694C26.6219 23.9152 26.6219 24.5801 25.9761 25.2512Z" fill="#FFBE17"/>
            <path d="M16.2126 7.1362C17.8715 7.41479 19.3785 8.19992 20.5815 9.40295C21.7845 10.606 22.5633 12.1129 22.8482 13.7718C22.9179 14.1897 23.2788 14.481 23.6904 14.481C23.741 14.481 23.7853 14.4746 23.836 14.4683C24.3045 14.3923 24.6148 13.9491 24.5388 13.4806C24.1969 11.4734 23.2471 9.64355 21.7972 8.19359C20.3472 6.74363 18.5174 5.79388 16.5102 5.45197C16.0417 5.37598 15.6048 5.68624 15.5225 6.14845C15.4402 6.61067 15.7441 7.06022 16.2126 7.1362Z" fill="#FFBE17"/>
            <path d="M29.9649 13.2338C29.4014 9.92867 27.8438 6.9211 25.4504 4.52772C23.057 2.13434 20.0495 0.576736 16.7443 0.0132147C16.2821 -0.0690975 15.8452 0.247488 15.7629 0.709702C15.6869 1.17825 15.9972 1.61514 16.4657 1.69745C19.4163 2.19765 22.1073 3.59696 24.2474 5.73074C26.3875 7.87086 27.7805 10.5618 28.2807 13.5124C28.3503 13.9303 28.7112 14.2216 29.1228 14.2216C29.1735 14.2216 29.2178 14.2152 29.2684 14.2089C29.7306 14.1392 30.0472 13.696 29.9649 13.2338Z" fill="#FFBE17"/>
        </g>
    </symbol>

    <symbol id="date" viewBox="0 0 50 50">
       <g>
	        <path d="M44.6429 5.35714H39.2857V1.78575C39.2857 0.79949 38.4862 0 37.5 0C36.5137 0 35.7142 0.79949 35.7142 1.78575V5.35714H14.2857V1.78575C14.2857 0.79949 13.4862 0 12.5 0C11.5139 0 10.7143 0.79949 10.7143 1.78575V5.35714H5.35714C2.39847 5.35714 0 7.75561 0 10.7143V44.6429C0 47.6015 2.39847 50 5.35714 50H44.6429C47.6015 50 50 47.6015 50 44.6429V10.7143C50 7.75561 47.6015 5.35714 44.6429 5.35714ZM46.4285 44.6429C46.4285 45.6291 45.629 46.4286 44.6428 46.4286H5.35714C4.37088 46.4286 3.57139 45.6291 3.57139 44.6429V21.4286H46.4285V44.6429ZM46.4285 17.8572H3.57139V10.7143C3.57139 9.72802 4.37088 8.92853 5.35714 8.92853H10.7143V12.4999C10.7143 13.4862 11.5138 14.2857 12.5 14.2857C13.4863 14.2857 14.2858 13.4862 14.2858 12.4999V8.92853H35.7143V12.4999C35.7143 13.4862 36.5138 14.2857 37.5001 14.2857C38.4863 14.2857 39.2858 13.4862 39.2858 12.4999V8.92853H44.643C45.6292 8.92853 46.4287 9.72802 46.4287 10.7143V17.8572H46.4285Z" fill="#FFBE17"/>
            <path d="M36.9327 25.5232C36.2407 24.8548 35.1436 24.8548 34.4517 25.5232L21.4284 38.5464L15.548 32.666C14.8386 31.9809 13.7081 32.0005 13.023 32.7098C12.3546 33.4019 12.3546 34.4989 13.023 35.191L20.1659 42.3338C20.8633 43.0309 21.9936 43.0309 22.6909 42.3338L36.9766 28.0482C37.6617 27.3388 37.642 26.2084 36.9327 25.5232Z" fill="#FFBE17"/>
        </g>
    </symbol>

    <symbol id="phone" viewBox="0 0 50 50">
       <g>
	       <g>
	            <path d="M35.5187 0H14.4816C12.4683 0 10.843 1.63253 10.843 3.64223V46.3614C10.843 48.3693 12.4683 50 14.4816 50H35.5187C37.5284 50 39.1573 48.3693 39.1573 46.3614V3.64223C39.1573 1.63253 37.5284 0 35.5187 0ZM19.8092 2.21194H30.1947C30.4571 2.21194 30.6703 2.60367 30.6703 3.08833C30.6703 3.57299 30.4571 3.96655 30.1947 3.96655H19.8092C19.545 3.96655 19.3355 3.57299 19.3355 3.08833C19.3355 2.60367 19.545 2.21194 19.8092 2.21194ZM25.002 46.4051C23.7211 46.4051 22.6789 45.3629 22.6789 44.0802C22.6789 42.7975 23.7211 41.759 25.002 41.759C26.2792 41.759 27.3214 42.7975 27.3214 44.0802C27.3214 45.3629 26.2792 46.4051 25.002 46.4051ZM36.4315 38.4447H13.5706V6.14569H36.4315V38.4447Z" fill="#FFBE17"/>
            </g>
        </g>
    </symbol>

    <symbol id="check" viewBox="0 0 20 18">
       <g>
	       <g>
	            <path d="M18.9239 3.99998L9.3503 16.5C8.93406 16.9167 8.3097 17.3333 7.68534 17.3333C7.06097 17.3333 6.43661 17.125 6.02037 16.5L1.02547 10.0416C0.401104 9.20831 0.401104 7.74998 1.44171 7.12498C2.48231 6.49998 3.73104 6.49998 4.3554 7.54165L7.68534 11.9166L15.5939 1.49998C16.2183 0.666645 17.6751 0.458312 18.5076 1.08331C19.5482 1.70831 19.5482 2.95831 18.9239 3.99998Z" fill="#9271EE"/>
            </g>
        </g>
    </symbol>
    <symbol id="chat" viewBox="0 -2 512 512">
       <g>
            <g>
                <path d="m281.652344 188.558594c48.257812-12.917969 81.285156-49.757813 81.285156-91.867188 0-26.257812-12.609375-50.804687-35.503906-69.113281-22.234375-17.785156-51.667969-27.578125-82.875-27.578125-31.210938 0-60.644532 9.792969-82.878906 27.578125-22.890626 18.308594-35.5 42.855469-35.5 69.113281 0 23.839844 10.664062 46.722656 30.027343 64.425782 17.425781 15.933593 40.835938 26.691406 66.40625 30.601562 12.644531 23.71875 28.496094 40.523438 47.167969 49.992188 7.019531 3.558593 15.414062-2.328126 14.511719-10.109376-.023438-.214843-2.238281-19.53125-2.640625-43.042968zm-12.117188-17.761719c-4.664062.957031-8.015625 5.054687-8.023437 9.816406-.019531 11.679688.445312 22.679688 1.003906 31.625-9.140625-8.515625-17.304687-19.964843-24.382813-34.234375-1.511718-3.050781-4.472656-5.128906-7.855468-5.511718-47.898438-5.460938-84.019532-38.046876-84.019532-75.800782 0-42.246094 44.097657-76.613281 98.300782-76.613281s98.296875 34.367187 98.296875 76.613281c.003906 34.777344-30.148438 65.25-73.320313 74.105469zm0 0"/>
                <path d="m253.851562 89.996094c-1.550781-3.757813-5.332031-6.222656-9.386718-6.191406-4.214844.03125-8.023438 2.828124-9.386719 6.804687-1.375 4.015625.023437 8.613281 3.394531 11.1875 3.316406 2.53125 7.957032 2.742187 11.488282.511719 4.0625-2.570313 5.726562-7.867188 3.890624-12.3125zm0 0"/>
                <path d="m224.234375 85.488281c-3.433594-2.269531-8.003906-2.203125-11.371094.160157-3.441406 2.414062-5.007812 6.914062-3.847656 10.945312 1.164063 4.039062 4.824219 6.988281 9.015625 7.257812 4.246094.269532 8.265625-2.257812 9.898438-6.175781 1.8125-4.339843.246093-9.582031-3.695313-12.1875zm0 0"/>
                <path d="m276.070312 85.488281c-3.441406-2.269531-8.003906-2.199219-11.371093.160157-3.449219 2.414062-5.003907 6.910156-3.84375 10.945312 1.15625 4.039062 4.816406 6.988281 9.007812 7.257812 4.238281.269532 8.28125-2.257812 9.910157-6.175781 1.804687-4.339843.234374-9.585937-3.703126-12.1875zm0 0"/>
                <path d="m211.230469 366.128906c9.414062-18.253906 11.152343-39.082031 4.902343-58.644531l-16.761718-52.457031c-4.503906-14.085938-12.910156-26.5-24.3125-35.890625-20.292969-16.71875-47.332032-21.933594-72.332032-13.945313-19.5625 6.253906-35.519531 19.746094-44.933593 38-9.410157 18.257813-11.152344 39.082032-4.902344 58.644532l16.765625 52.460937c2.683594 8.398437 6.691406 16.011719 11.710938 22.695313l-1.519532 4.558593c-46.59375 13.675781-79.847656 61.507813-79.847656 116.132813 0 5.542968 4.496094 10.039062 10.039062 10.039062h193.921876c5.546874 0 10.039062-4.496094 10.039062-10.039062 0-37.898438-15.847656-73.058594-42.222656-95.554688 17.054687-6.886718 30.9375-19.484375 39.453125-36zm-135.59375-113.734375c6.957031-13.484375 18.746093-23.457031 33.199219-28.078125 5.699218-1.820312 11.539062-2.710937 17.335937-2.710937 10.300781 0 20.453125 2.816406 29.390625 8.246093-6.011719 10.25-13.03125 19.914063-21.3125 28.449219-8.34375 8.59375-18.285156 15.90625-29.539062 20.164063-3.261719 1.234375-6.589844 1.96875-9.945313 2.863281-2.761719.738281-5.125 2.667969-6.394531 5.230469-1.332032 2.675781-1.386719 5.800781-.179688 8.527344.039063.085937.0625.171874.101563.257812.464843.980469 1.015625 2.261719 1.59375 3.761719 3 7.847656 6.914062 22.335937 2.945312 31.832031-1.394531 3.332031-3.933593 5.976562-7.113281 7.667969l-13.703125-42.882813c-4.617187-14.453125-3.332031-29.839844 3.621094-43.328125zm63.941406 155.3125-3.265625 9.792969c-.238281.710938-.507812 1.40625-.808594 2.082031-2.109375 4.722657-5.753906 8.542969-10.441406 10.886719-5.359375 2.679688-11.441406 3.109375-17.125 1.214844-5.683594-1.894532-10.292969-5.890625-12.96875-11.25-2.679688-5.359375-3.109375-11.441406-1.214844-17.125l3.523438-10.5625c.058594.042968.121094.082031.179687.128906.652344.472656 1.308594.933594 1.972657 1.386719.085937.058593.171874.121093.257812.179687 11.707031 7.9375 25.511719 12.628906 39.890625 13.265625zm53.910156 79.9375h-172.96875c3.191407-36.316406 23.511719-67.683593 52.242188-81.875-.898438 8.082031.613281 16.371094 4.246093 23.640625 5.078126 10.15625 13.804688 17.730469 24.578126 21.320313 10.640624 3.550781 22.417968 2.710937 32.453124-2.300781 10.15625-5.078126 17.730469-13.804688 21.320313-24.574219l2.429687-7.285157c20.203126 16.71875 33.210938 42.519532 35.699219 71.074219zm-33.300781-102.640625c-19.871094 6.347656-42.257812.953125-57.144531-13.636718-4.128907-4.046876-7.628907-8.738282-10.335938-13.84375 7.941407-3.609376 14.535157-9.769532 18.175781-17.746094 5.65625-12.390625 3.917969-26.84375 1.089844-37.585938-.339844-1.289062-.839844-2.539062-1.164062-3.824218-.03125-.117188-.042969-.238282-.039063-.359376-.21875-.304687-.128906-.460937.265625-.464843.273438-.207031.792969-.292969 1.109375-.417969.683594-.261719 1.363281-.535156 2.039063-.820312 2.929687-1.21875 5.792968-2.589844 8.582031-4.097657 4.9375-2.664062 9.609375-5.832031 14.023437-9.285156 8.921876-6.976563 16.742188-15.34375 23.621094-24.320313 3.742188-4.882812 7.214844-9.972656 10.4375-15.214843 4.140625 5.277343 7.328125 11.273437 9.394532 17.75l16.765624 52.457031c9.535157 29.839844-6.984374 61.875-36.820312 71.410156zm0 0"/>
                <path d="m479.628906 409.773438c4.933594-8.617188 7.597656-18.449219 7.597656-28.445313 0-24.058594-14.804687-44.964844-36.476562-53.332031l8.359375-26.160156c12.90625-40.382813-9.449219-83.738282-49.835937-96.644532-19.5625-6.253906-40.386719-4.511718-58.640626 4.902344-18.253906 9.414062-31.75 25.371094-38.003906 44.933594l-16.761718 52.457031c-6.25 19.5625-4.511719 40.390625 4.902343 58.644531 8.25 16.003906 21.535157 28.347656 37.871094 35.363282-25.632813 22.664062-40.640625 57.011718-40.640625 94.199218 0 5.542969 4.496094 10.039063 10.039062 10.039063h83.90625c5.546876 0 10.039063-4.496094 10.039063-10.039063 0-5.542968-4.492187-10.039062-10.039063-10.039062h-73.4375c2.144532-24.933594 12.226563-47.671875 28.316407-64.253906 5.308593 14.3125 17.476562 25.523437 32.171875 29.644531 4.207031 1.179687 8.578125 1.78125 12.949218 1.78125 26.523438 0 48.101563-21.578125 48.101563-48.101563 0-.171875-.003906-.347656-.015625-.519531 4.660156 2.367187 9.148438 5.203125 13.390625 8.480469 2.167969 1.683594 4.265625 3.460937 6.273437 5.335937 17.644532 16.496094 29.421876 40.695313 31.789063 67.632813h-19.246094c-5.542969 0-10.039062 4.496094-10.039062 10.039062 0 5.542969 4.496093 10.039063 10.039062 10.039063h29.722657c5.542968 0 10.039062-4.496094 10.039062-10.039063 0-33.210937-12.285156-63.882812-32.371094-85.917968zm-35.003906-62.605469c13.4375 5.707031 22.523438 18.96875 22.523438 34.160156 0 5.03125-.980469 9.882813-2.878907 14.382813-4.925781-3.675782-10.117187-6.886719-15.503906-9.597657-3.988281-2.011719-8.113281-3.691406-12.316406-5.191406-.996094-.355469-2.007813-.652344-3.011719-.972656-.625-.195313-1.316406-.226563-1.636719-.769531-.429687-.726563-.601562-1.746094-.878906-2.542969 5-6.75 8.835937-14.242188 11.425781-22.34375zm-84.792969-119.230469c13.488281-6.953125 28.875-8.238281 43.332031-3.621094 14.453126 4.621094 26.242188 14.59375 33.199219 28.078125 6.953125 13.488281 8.238281 28.878907 3.621094 43.332031-.351563 1.101563-.558594 2.5-1.121094 3.503907-.058593.105469-.050781.21875-.128906.289062-.351563.320313-1.71875.324219-2.199219.402344-1.351562.21875-2.710937.386719-4.074218.507813-5.609376.492187-11.296876-.007813-16.667969-1.734376-2.9375-.941406-5.769531-2.226562-8.417969-3.800781-24.21875-14.382812-32.632812-51.039062-32.710938-51.390625-1.410156-6.429687-8.875-9.851562-14.652343-6.632812-2.257813 1.257812-4.050781 3.4375-6.050781 5.0625-2.417969 1.964844-4.980469 3.769531-7.691407 5.300781-3.132812 1.765625-6.546875 3.21875-10.128906 3.703125 5.382813-9.789062 13.542969-17.761719 23.691406-23zm-44.839843 85.660156 13.664062-42.753906c10.914062 1.683594 21.917969-2.300781 31.019531-8.109375.179688.472656.363281.945313.546875 1.417969 5.046875 12.945312 14.25 30.789062 29.582032 42.953125 9.34375 7.414062 20.589843 12.175781 32.492187 13.304687 3.234375.304688 6.496094.359375 9.738281.183594-1.191406 3.730469-5.785156 18.101562-6.886718 21.558594-1.480469 4.625-2.875 9.246094-4.984376 13.636718-2.121093 4.410157-4.875 8.550782-8.078124 12.25-10.683594 12.328126-26.339844 19.597657-42.796876 19.660157-5.910156.007812-11.847656-.894531-17.476562-2.695313-29.835938-9.535156-46.355469-41.570312-36.820312-71.40625zm76.953124 119.148438c-10.878906 0-21.019531-6.5625-25.515624-16.460938-1.246094-2.738281-2.050782-5.675781-2.359376-8.667968 2.75.1875 5.519532.210937 8.273438.09375 15.445312-.625 30.371094-5.902344 42.8125-15.222657l4.769531 13.796875c-.816406 14.726563-13.054687 26.460938-27.980469 26.460938zm0 0"/>
                <path d="m437.648438 487.339844c-3.625-2.433594-8.566407-2.183594-11.941407.59375-3.101562 2.550781-4.398437 6.824218-3.226562 10.667968 1.238281 4.070313 5.015625 6.972657 9.269531 7.125 4.1875.144532 8.128906-2.464843 9.664062-6.351562 1.71875-4.355469.117188-9.433594-3.765624-12.035156zm0 0"/>
            </g>
        </g>
    </symbol>
    <symbol id="friendship" viewBox="0 0 64 64">
       <g>
	       <g>
                <path d="m57.626 50.769c1.439-1.097 2.374-2.824 2.374-4.769 0-2.967-2.167-5.431-5-5.91v-1.09c0-2.757-2.243-5-5-5h-17v-3.644c.54.411 1.189.644 1.879.644 1.684 0 3.051-1.342 3.11-3.011 1.632-.058 2.942-1.368 3-3 1.632-.058 2.942-1.368 3-3 1.669-.059 3.011-1.427 3.011-3.11 0-.834-.325-1.618-.914-2.207l-.208-.208c1.374-1.686 2.122-3.774 2.122-5.979 0-5.23-4.255-9.485-9.485-9.485-2.447 0-4.746.928-6.515 2.604-1.769-1.676-4.068-2.604-6.515-2.604-5.23 0-9.485 4.255-9.485 9.485 0 2.457.935 4.766 2.625 6.538-.399.536-.625 1.176-.625 1.856 0 1.684 1.342 3.051 3.011 3.11.058 1.632 1.368 2.942 3 3 .058 1.632 1.368 2.942 3 3 .059 1.669 1.427 3.011 3.11 3.011.304 0 .596-.057.879-.14v3.14h-17c-2.757 0-5 2.243-5 5v1.09c-2.833.479-5 2.943-5 5.91 0 1.945.935 3.672 2.374 4.769-3.16 1.398-5.374 4.559-5.374 8.231v4h18v-4c0-3.672-2.214-6.833-5.374-8.231 1.439-1.097 2.374-2.824 2.374-4.769 0-2.967-2.167-5.431-5-5.91v-1.09c0-1.654 1.346-3 3-3h17v4.09c-2.833.478-5 2.942-5 5.91 0 1.945.935 3.672 2.374 4.769-3.16 1.398-5.374 4.559-5.374 8.231v4h18v-4c0-3.672-2.214-6.833-5.374-8.231 1.439-1.097 2.374-2.824 2.374-4.769 0-2.967-2.167-5.431-5-5.91v-4.09h17c1.654 0 3 1.346 3 3v1.09c-2.833.478-5 2.942-5 5.91 0 1.945.935 3.672 2.374 4.769-3.16 1.398-5.374 4.559-5.374 8.231v4h18v-4c0-3.672-2.214-6.833-5.374-8.231zm-19.111-47.769c4.127 0 7.485 3.358 7.485 7.485 0 1.669-.549 3.25-1.55 4.55l-4.598-4.598c.298-.224.587-.462.856-.73l-1.414-1.414c-1.102 1.101-2.565 1.707-4.123 1.707h-1.585l-1.707 1.707c-.189.189-.441.293-.708.293h-3.757c-.228 0-.414-.186-.414-.414 0-.109.044-.216.121-.293l6.101-6.101c1.414-1.413 3.293-2.192 5.293-2.192zm-13.03 0c1.908 0 3.702.716 5.091 2.009l-4.87 4.87c-.455.455-.706 1.062-.706 1.707 0 1.331 1.083 2.414 2.414 2.414h3.757c.801 0 1.555-.312 2.122-.879l1.121-1.121h.757c.999 0 1.967-.191 2.869-.546l6.632 6.632c.211.212.328.493.328.793 0 .618-.503 1.121-1.121 1.121-.3 0-.581-.117-.793-.328l-2.379-2.379-1.414 1.414 2.379 2.379c.211.212.328.493.328.793 0 .618-.503 1.121-1.121 1.121-.3 0-.581-.117-.793-.328l-2.379-2.379-1.414 1.414 2.379 2.379c.211.212.328.493.328.793 0 .618-.503 1.121-1.121 1.121-.3 0-.581-.117-.793-.328l-2.379-2.379-1.414 1.414 2.379 2.379c.211.212.328.493.328.793 0 .618-.503 1.121-1.121 1.121-.3 0-.581-.117-.793-.328l-.334-.334c.161-.38.248-.791.248-1.217 0-1.684-1.342-3.051-3.011-3.11-.058-1.632-1.368-2.942-3-3-.058-1.632-1.368-2.942-3-3-.059-1.669-1.427-3.011-3.11-3.011-.673 0-1.307.22-1.838.611-1.314-1.394-2.041-3.202-2.041-5.126 0-4.127 3.358-7.485 7.485-7.485zm-5.485 15.879c0-.3.117-.581.328-.793l.758-.758c.212-.211.493-.328.793-.328.618 0 1.121.503 1.121 1.121 0 .3-.117.581-.328.793l-.758.758c-.212.211-.493.328-.793.328-.618 0-1.121-.503-1.121-1.121zm3 3c0-.3.117-.581.328-.793l.758-.758c.212-.211.493-.328.793-.328.618 0 1.121.503 1.121 1.121 0 .3-.117.581-.328.793l-.758.758c-.212.211-.493.328-.793.328-.618 0-1.121-.503-1.121-1.121zm3 3c0-.3.117-.581.328-.793l.758-.758c.212-.211.493-.328.793-.328.618 0 1.121.503 1.121 1.121 0 .3-.117.581-.328.793l-.758.758c-.212.211-.493.328-.793.328-.618 0-1.121-.503-1.121-1.121zm4.121 4.121c-.618 0-1.121-.503-1.121-1.121 0-.3.117-.581.328-.793l.758-.758c.212-.211.493-.328.793-.328.618 0 1.121.503 1.121 1.121 0 .3-.117.581-.328.793l-.758.758c-.212.211-.493.328-.793.328zm-13.121 30v2h-2v-4h-2v4h-6v-4h-2v4h-2v-2c0-3.86 3.14-7 7-7s7 3.14 7 7zm-3-13c0 2.206-1.794 4-4 4s-4-1.794-4-4 1.794-4 4-4 4 1.794 4 4zm25 13v2h-2v-4h-2v4h-6v-4h-2v4h-2v-2c0-3.86 3.14-7 7-7s7 3.14 7 7zm-3-13c0 2.206-1.794 4-4 4s-4-1.794-4-4 1.794-4 4-4 4 1.794 4 4zm14 0c0-2.206 1.794-4 4-4s4 1.794 4 4-1.794 4-4 4-4-1.794-4-4zm11 15h-2v-4h-2v4h-6v-4h-2v4h-2v-2c0-3.86 3.14-7 7-7s7 3.14 7 7z"/>
                <path d="m38 38h2v2h-2z"/>
                <path d="m42 38h2v2h-2z"/>
                <path d="m46 38h2v2h-2z"/>
                <path d="m16 38h2v2h-2z"/>
                <path d="m20 38h2v2h-2z"/>
                <path d="m24 38h2v2h-2z"/>
            </g>
        </g>
    </symbol>
    <symbol id="self" viewBox="-27 1 511 511.999">
       <g>
	       <g>
	            <path d="m453.265625 380.566406-18.140625-28.628906c-2.957031-4.667969-9.132812-6.050781-13.800781-3.097656-4.664063 2.957031-6.046875 9.136718-3.09375 13.800781l18.144531 28.632813c3.226562 5.09375 2.453125 11.863281-1.839844 16.101562-2.707031 2.671875-6.429687 4.007812-10.222656 3.667969-3.789062-.34375-7.214844-2.320313-9.40625-5.433594l-78.199219-111.214844-31.003906-73.960937v-8.691406c0-5.519532-4.476563-10-10-10-5.519531 0-10 4.480468-10 10v133.261718h-112.617187v-122.433594c0-.03125 0-.066406 0-.101562v-10.726562c0-5.519532-4.476563-10-10-10-5.523438 0-10 4.480468-10 10v8.792968l-30.957032 73.859375-78.203125 111.214844c-2.1875 3.109375-5.617187 5.089844-9.40625 5.429687-3.785156.339844-7.515625-.992187-10.222656-3.667968-4.292969-4.234375-5.066406-11.003906-1.839844-16.101563l69.496094-109.671875c.433594-.679687.777344-1.402344 1.035156-2.164062l29.71875-88.378906c10.46875-31.136719 39.578125-52.054688 72.425781-52.054688h68.566407c32.851562 0 61.957031 20.917969 72.425781 52.054688l29.722656 88.378906c.253906.761718.601563 1.484375 1.03125 2.164062l13.578125 21.433594c1.90625 3.003906 5.144531 4.648438 8.457031 4.648438 1.832032 0 3.683594-.503907 5.34375-1.554688 4.664063-2.957031 6.050782-9.136719 3.09375-13.800781l-12.933593-20.410157-29.335938-87.234374c-12.019531-35.75-43.511719-60.816407-80.316406-65.042969 10.882813-11.320313 17.597656-26.679688 17.597656-43.585938v-13.105469c0-34.707031-28.238281-62.945312-62.949219-62.945312-34.707031 0-62.945312 28.238281-62.945312 62.945312v13.105469c0 16.90625 6.710938 32.265625 17.597656 43.585938-36.804687 4.226562-68.296875 29.292969-80.320312 65.042969l-29.332032 87.234374-68.851562 108.652344c-8.230469 12.984375-6.257812 30.246094 4.6875 41.042969 4.96875 4.902344 11.285156 8.039063 18.035156 9.085937-.003906.011719-.007812.019532-.007812.027344-5.285156 14.136719-5.082032 29.628906.570312 43.621094 9.367188 23.191406 31.820313 37.65625 55.839844 37.65625 5.171875 0 10.421875-.671875 15.625-2.074219l129.101562-34.75 129.101563 34.75c5.203125 1.402344 10.449219 2.074219 15.625 2.074219 24.011719-.003906 46.46875-14.46875 55.835937-37.65625 5.652344-13.992188 5.855469-29.484375.574219-43.621094-.003906-.007812-.007812-.015625-.011719-.027344 6.75-1.046874 13.066407-4.183593 18.039063-9.085937 10.945313-10.792969 12.917969-28.054687 4.6875-41.042969zm-266.796875-317.621094c0-23.679687 19.265625-42.945312 42.949219-42.945312 23.679687 0 42.945312 19.265625 42.945312 42.945312v13.105469c0 23.683594-19.265625 42.949219-42.945312 42.949219-23.683594 0-42.949219-19.269531-42.949219-42.949219zm132.207031 240.179688c.277344.664062.628907 1.300781 1.042969 1.886719l56.402344 80.210937-70.417969-35.90625v-77.144531zm-179.5625 1.886719c.414063-.585938.761719-1.222657 1.039063-1.886719l12.933594-30.851562v77.066406l-70.378907 35.882812zm272.324219 161.84375c-7.605469 18.820312-28.121094 29.035156-47.722656 23.761719l-101.167969-27.234376c8.105469-6.390624 13.15625-16.273437 13.15625-27.0625 0-.375-.019531-.746093-.03125-1.117187l62.515625 14.765625c.773438.183594 1.546875.269531 2.308594.269531 4.53125 0 8.636718-3.101562 9.722656-7.703125 1.269531-5.375-2.058594-10.761718-7.433594-12.03125l-74.785156-17.664062c-.59375-.140625-1.191406-.214844-1.785156-.246094-1.109375-1.160156-2.296875-2.265625-3.582032-3.28125-8.304687-6.570312-18.980468-8.941406-29.289062-6.511719l-117.296875 27.703125c-5.375 1.269532-8.703125 6.65625-7.433594 12.03125s6.652344 8.703125 12.03125 7.433594l117.292969-27.703125c4.328125-1.023437 8.804688-.027344 12.285156 2.730469 3.484375 2.757812 5.480469 6.886718 5.480469 11.324218 0 6.519532-4.398437 12.253907-10.691406 13.949219l-17.804688 4.792969c-.210937.046875-.414062.105469-.617187.164062l-131.472656 35.386719c-19.601563 5.277344-40.117188-4.9375-47.722657-23.757812-7.859375-19.464844.3125-41.335938 19.011719-50.871094l99.988281-50.980469h126.042969l99.988281 50.980469c18.699219 9.539063 26.875 31.40625 19.011719 50.871094zm0 0"/>
	            <path d="m399.621094 333.78125c1.953125 1.957031 4.515625 2.9375 7.082031 2.9375 2.554687 0 5.109375-.972656 7.0625-2.921875l.371094-.367187c3.910156-3.902344 3.917969-10.234376.015625-14.144532-3.898438-3.910156-10.230469-3.917968-14.140625-.019531l-.371094.371094c-3.910156 3.902343-3.917969 10.234375-.019531 14.144531zm0 0"/>
            </g>
        </g>
    </symbol>
    <symbol id="emotions" viewBox="0 0 60 60">
       <g id="Page-1" stroke="none" stroke-width="1" fill-rule="evenodd">
		<g id="052---Split-Personality" transform="translate(-1.000000, -1.000000)">
			<path d="M2.472,38.392 C2.80054825,38.6202248 3.1473953,38.8209078 3.509,38.992 C3.942,39.214 4.667,39.584 4.717,39.843 C4.78031432,40.1841061 4.7395478,40.5363706 4.6,40.854 C4.451,41.174 4.294,41.449 4.16,41.687 C3.793,42.334 3.18,43.417 4.105,44.172 C4.321,44.372 4.694,44.661 5.035,44.922 C4.78429954,45.3595079 4.67073033,45.8622085 4.709,46.365 C4.76194566,46.7609409 4.97665396,47.1172191 5.302,47.349 C5.524,47.505 5.761,47.642 5.995,47.774 C6.586,48.111 6.817,48.268 6.895,48.581 C6.95069328,48.9834766 6.91654191,49.393293 6.795,49.781 C6.737,50.049 6.679,50.317 6.646,50.581 C6.54656038,51.4922757 6.65880736,52.4142066 6.974,53.275 C7.42302917,54.8635415 8.859478,55.9705333 10.51,56 C10.7859477,55.9996337 11.0611041,55.9704758 11.331,55.913 C14.1879732,55.2369535 17.0030862,54.3948571 19.762,53.391 C22.014,54.712 23.438,58.733 23.809,60.241 C23.9197719,60.6870872 24.3203652,61.0002183 24.78,61 L49.88,60.93 C50.198095,60.9293833 50.4969218,60.7774667 50.6848608,60.5208273 C50.8727998,60.2641879 50.9274293,59.9334437 50.832,59.63 C50.584758,58.9524505 50.2437748,58.3128965 49.819,57.73 C49.5794826,57.383949 49.3630142,57.0225003 49.171,56.648 C48.7189936,55.7307827 48.3414446,54.7787169 48.042,53.801 C47.4713724,51.86946 47.075776,49.8904743 46.86,47.888 C46.7558051,46.9248706 46.7373994,45.9543875 46.805,44.988 C46.87,44.988 46.932,44.998 46.997,44.998 C53.1435345,44.9931532 58.5680366,40.9797588 60.3704808,35.1034415 C62.172925,29.2271243 59.9316998,22.8624195 54.845,19.412 C54.6801481,18.11626 54.4241806,16.8337494 54.079,15.574 C53.0630062,12.1395898 50.9674742,9.12393125 48.103,6.974 C45.6070109,4.94598805 42.7917667,3.34625619 39.772,2.24 C39.7434066,2.23114346 39.7143663,2.22379994 39.685,2.218 C37.897046,1.41579336 35.959672,1.00071482 34,1 C33.8,1 33.607,1.022 33.409,1.03 C33.395,1.03 33.384,1.021 33.37,1.021 C32.553,0.987 31.784,0.992 31.017,1.031 C27.7633257,1.25642965 24.5306187,1.72068008 21.345,2.42 C16.837,3.32 13.559,4.899 11.322,7.264 C9.55764935,9.15273351 8.19332433,11.378648 7.311,13.808 C6.95048378,14.8528228 6.65459148,15.9188366 6.425,17 L6.325,17.421 C6.11203544,18.2060552 5.82508359,18.9691396 5.468,19.7 C5.268,20.155 5.062,20.61 4.881,21.084 C4.65311901,21.6096949 4.56294901,22.1847868 4.619,22.755 C4.8202643,23.6508991 5.33750027,24.4443256 6.076,24.99 C6.565,25.439 6.886,25.755 6.89,26.03 C6.85309275,26.1819661 6.79591349,26.3282777 6.72,26.465 C5.52194066,28.9872106 4.05403523,31.3721378 2.342,33.578 C1.618,34.46 0.86,35.488 1.019,36.517 C1.23276535,37.3113274 1.75616654,37.9867419 2.472,38.392 Z M59,31 C58.9928352,37.624447 53.624447,42.9928352 47,43 C46.66,43 46.326,42.977 45.993,42.949 L45.988,42.949 L45.977,42.949 C42.6159855,42.6902409 39.5228844,41.0166339 37.4675644,38.3447369 C35.4122443,35.6728398 34.5880056,32.2539415 35.2,28.939 C36.5048789,28.8271794 37.7873102,28.5308971 39.009,28.059 C39.0273028,29.5269709 40.1052841,30.7660525 41.5565978,30.9873267 C43.0079114,31.2086009 44.406164,30.3470578 44.861094,28.9512382 C45.316024,27.5554187 44.6939737,26.0354119 43.391,25.359 C45.2810488,23.6518141 46.6698536,21.4616029 47.408,19.024 C53.8651237,19.2462609 58.9882166,24.5390629 59,31 Z M34,3 C40.627417,3 46,8.372583 46,15 C46,21.627417 40.627417,27 34,27 C27.372583,27 22,21.627417 22,15 C22.0071648,8.37555305 27.375553,3.00716485 34,3 Z M43,28 C43,28.5522847 42.5522847,29 42,29 C41.4477153,29 41,28.5522847 41,28 C41,27.4477153 41.4477153,27 42,27 C42.5522847,27 43,27.4477153 43,28 Z M52.158,16.122 C52.343,16.774 52.499,17.47 52.636,18.194 C51.1174629,17.5269418 49.4918787,17.1368016 47.836,17.042 C48.3319327,13.8954406 47.7068873,10.6746517 46.07,7.942 C46.337,8.142 46.605,8.342 46.87,8.55 C49.4103297,10.4306854 51.2670909,13.0894213 52.158,16.122 Z M3.924,34.8 C5.71375889,32.4951848 7.2480766,30.0029244 8.5,27.367 C8.73497076,26.954426 8.86735419,26.4914269 8.886,26.017 C8.78360356,25.011548 8.25073785,24.0997313 7.425,23.517 C7.025,23.146 6.639,22.796 6.595,22.472 C6.60269376,22.2355727 6.65529553,22.0027674 6.75,21.786 C6.913,21.358 7.101,20.938 7.29,20.518 C7.70037906,19.6721835 8.02823001,18.7887608 8.269,17.88 L8.369,17.455 C8.58135844,16.4541893 8.85487145,15.4673384 9.188,14.5 C9.97659287,12.3246957 11.1970675,10.3313899 12.776,8.64 C14.69,6.614 17.7,5.183 21.74,4.38 C23.026,4.118 24.428,3.851 25.877,3.619 C21.0431671,7.05617027 18.9058084,13.1703994 20.545504,18.8705291 C22.1851995,24.5706588 27.2446663,28.6146538 33.166,28.958 C33.0616174,29.6337872 33.00614,30.3162264 33,31 C33.0118424,37.8712356 38.0054998,43.7196174 44.79,44.808 C44.7179684,45.9156759 44.747089,47.0276128 44.877,48.13 C45.1069847,50.2535694 45.5280234,52.3520695 46.135,54.4 C46.4637026,55.4753737 46.8787184,56.5224441 47.376,57.531 C47.604122,57.9840924 47.8634115,58.4208081 48.152,58.838 C48.174,58.871 48.196,58.904 48.218,58.938 L25.536,59 C24.8717541,56.627989 23.6669103,54.4421559 22.016,52.614 L22.955,52.286 C23.607,52.059 24.099,51.886 24.355,51.805 C28.64,50.452 30.782,48.505 30.724,46.005 C30.7156043,45.6477344 30.5172474,45.3220864 30.2036484,45.1507246 C29.8900495,44.9793627 29.5088516,44.9883208 29.2036484,45.1742246 C28.8984452,45.3601283 28.7156042,45.6947344 28.724,46.052 C28.748,47.081 27.905,48.582 23.746,49.896 C23.479,49.982 22.972,50.159 22.298,50.396 C21.549,50.658 20.591,50.996 19.531,51.353 C16.7168654,52.3847693 13.8454025,53.252886 10.931,53.953 C9.99726211,54.1319621 9.08795525,53.5447014 8.867,52.62 C8.65391662,52.0509676 8.57354163,51.4408017 8.632,50.836 C8.659,50.626 8.706,50.417 8.752,50.208 C8.95539225,49.5165593 8.98493295,48.7855986 8.838,48.08 C8.54685539,47.1626653 7.87185426,46.4168803 6.988,46.036 C6.918,45.997 6.849,45.957 6.78,45.917 C6.88817724,45.6985751 7.01745938,45.4912548 7.166,45.298 C7.33332921,45.0853699 7.40735318,44.8140087 7.37117341,44.5458638 C7.33499364,44.277719 7.19169851,44.0356798 6.974,43.875 C6.734,43.698 6.168,43.275 5.754,42.941 C5.802,42.854 5.854,42.758 5.904,42.672 C6.061,42.396 6.241,42.072 6.415,41.706 C6.73195159,41.0051861 6.82518406,40.2237094 6.682,39.468 C6.442,38.247 5.273,37.649 4.419,37.213 C4.13122025,37.0770398 3.85555542,36.9167929 3.595,36.734 C3.38069965,36.5908717 3.17987123,36.4285354 2.995,36.249 C3,36.1 3.162,35.731 3.924,34.8 Z" id="Shape"/>
			<path d="M10.966,19.54 C11.5032883,19.6648555 12.0402087,19.33107 12.166,18.794 L12.266,18.357 C12.4416976,17.5225638 12.6650637,16.6988805 12.935,15.89 C13.5374558,14.2205962 14.4707696,12.6900159 15.679,11.39 C16.9749597,10.1673852 18.5618104,9.29616632 20.289,8.859 C20.8175365,8.69773284 21.1152671,8.1385365 20.954,7.61000001 C20.7927328,7.08146351 20.2335365,6.78373287 19.705,6.945 C17.6449016,7.48103948 15.7576052,8.53868316 14.225,10.016 C12.8317446,11.5131091 11.7555223,13.2764265 11.061,15.2 C10.7609859,16.0868957 10.5138846,16.9908189 10.321,17.907 L10.221,18.34 C10.0960876,18.8769763 10.4293361,19.4137523 10.966,19.54 Z" id="Shape"/>
			<circle id="Oval" cx="10" cy="22" r="1"/>
			<path d="M29,15 C30.6568542,15 32,13.6568542 32,12 C32,10.3431458 30.6568542,9 29,9 C27.3431458,9 26,10.3431458 26,12 C26,13.6568542 27.3431458,15 29,15 Z M29,11 C29.5522847,11 30,11.4477153 30,12 C30,12.5522847 29.5522847,13 29,13 C28.4477153,13 28,12.5522847 28,12 C28,11.4477153 28.4477153,11 29,11 Z" id="Shape"/>
			<path d="M39,15 C40.6568542,15 42,13.6568542 42,12 C42,10.3431458 40.6568542,9 39,9 C37.3431458,9 36,10.3431458 36,12 C36,13.6568542 37.3431458,15 39,15 Z M39,11 C39.5522847,11 40,11.4477153 40,12 C40,12.5522847 39.5522847,13 39,13 C38.4477153,13 38,12.5522847 38,12 C38,11.4477153 38.4477153,11 39,11 Z" id="Shape"/>
			<path d="M30,18 C30,17.4477153 29.5522847,17 29,17 C28.4477153,17 28,17.4477153 28,18 C28,21.3137085 30.6862915,24 34,24 C37.3137085,24 40,21.3137085 40,18 C40,17.4477153 39.5522847,17 39,17 C38.4477153,17 38,17.4477153 38,18 C38,20.209139 36.209139,22 34,22 C31.790861,22 30,20.209139 30,18 Z" id="Shape"/>
			<path d="M52,31 C53.6568542,31 55,29.6568542 55,28 C55,26.3431458 53.6568542,25 52,25 C50.3431458,25 49,26.3431458 49,28 C49,29.6568542 50.3431458,31 52,31 Z M52,27 C52.5522847,27 53,27.4477153 53,28 C53,28.5522847 52.5522847,29 52,29 C51.4477153,29 51,28.5522847 51,28 C51,27.4477153 51.4477153,27 52,27 Z" id="Shape"/>
			<path d="M47,33 C43.6876624,33.0033074 41.0033074,35.6876624 41,39 C41,39.5522847 41.4477153,40 42,40 C42.5522847,40 43,39.5522847 43,39 C43,36.790861 44.790861,35 47,35 C49.209139,35 51,36.790861 51,39 C51,39.5522847 51.4477153,40 52,40 C52.5522847,40 53,39.5522847 53,39 C52.9966926,35.6876624 50.3123376,33.0033074 47,33 Z" id="Shape"/>
		</g>
	</g>
    </symbol>
</svg>