<svg width="50" height="50" viewBox="0 0 50 50" fill="none" xmlns="http://www.w3.org/2000/svg">
<path d="M35.5187 0H14.4816C12.4683 0 10.843 1.63253 10.843 3.64223V46.3614C10.843 48.3693 12.4683 50 14.4816 50H35.5187C37.5284 50 39.1573 48.3693 39.1573 46.3614V3.64223C39.1573 1.63253 37.5284 0 35.5187 0ZM19.8092 2.21194H30.1947C30.4571 2.21194 30.6703 2.60367 30.6703 3.08833C30.6703 3.57299 30.4571 3.96655 30.1947 3.96655H19.8092C19.545 3.96655 19.3355 3.57299 19.3355 3.08833C19.3355 2.60367 19.545 2.21194 19.8092 2.21194ZM25.002 46.4051C23.7211 46.4051 22.6789 45.3629 22.6789 44.0802C22.6789 42.7975 23.7211 41.759 25.002 41.759C26.2792 41.759 27.3214 42.7975 27.3214 44.0802C27.3214 45.3629 26.2792 46.4051 25.002 46.4051ZM36.4315 38.4447H13.5706V6.14569H36.4315V38.4447Z" fill="#FFBE17"/>
</svg>
