<svg width="50" height="50" viewBox="0 0 50 50" fill="none" xmlns="http://www.w3.org/2000/svg">
<path d="M44.6429 5.35714H39.2857V1.78575C39.2857 0.79949 38.4862 0 37.5 0C36.5137 0 35.7142 0.79949 35.7142 1.78575V5.35714H14.2857V1.78575C14.2857 0.79949 13.4862 0 12.5 0C11.5139 0 10.7143 0.79949 10.7143 1.78575V5.35714H5.35714C2.39847 5.35714 0 7.75561 0 10.7143V44.6429C0 47.6015 2.39847 50 5.35714 50H44.6429C47.6015 50 50 47.6015 50 44.6429V10.7143C50 7.75561 47.6015 5.35714 44.6429 5.35714ZM46.4285 44.6429C46.4285 45.6291 45.629 46.4286 44.6428 46.4286H5.35714C4.37088 46.4286 3.57139 45.6291 3.57139 44.6429V21.4286H46.4285V44.6429ZM46.4285 17.8572H3.57139V10.7143C3.57139 9.72802 4.37088 8.92853 5.35714 8.92853H10.7143V12.4999C10.7143 13.4862 11.5138 14.2857 12.5 14.2857C13.4863 14.2857 14.2858 13.4862 14.2858 12.4999V8.92853H35.7143V12.4999C35.7143 13.4862 36.5138 14.2857 37.5001 14.2857C38.4863 14.2857 39.2858 13.4862 39.2858 12.4999V8.92853H44.643C45.6292 8.92853 46.4287 9.72802 46.4287 10.7143V17.8572H46.4285Z" fill="#FFBE17"/>
<path d="M36.9327 25.5232C36.2407 24.8548 35.1436 24.8548 34.4517 25.5232L21.4284 38.5464L15.548 32.666C14.8386 31.9809 13.7081 32.0005 13.023 32.7098C12.3546 33.4019 12.3546 34.4989 13.023 35.191L20.1659 42.3338C20.8633 43.0309 21.9936 43.0309 22.6909 42.3338L36.9766 28.0482C37.6617 27.3388 37.642 26.2084 36.9327 25.5232Z" fill="#FFBE17"/>
</svg>
